<svg width="355" height="241" viewBox="0 0 355 241" fill="none" xmlns="http://www.w3.org/2000/svg">
<path d="M48.5955 156.218L8.93259 174.738V240H1V205.605L31.9371 209.133V240H24.0045V191.494H31.9371L95.3978 208.251V240H87.4652V131.524L95.3978 139.461L112.056 131.524V97.1292L119.989 102.421V78.6089L116.022 75.0812L127.128 66.262V1H132.681V66.262L143.787 75.0812L139.82 78.6089V102.421L147.753 97.1292V131.524L164.411 139.461L172.344 131.524V240H164.411V187.085L237.391 186.203V240H229.458V156.218L261.982 172.092V240H254.049V178.266L288.953 188.849V240H281.02V97.1292L327.822 119.177V240H336.548L354 144.753" stroke="#999999" stroke-width="2" stroke-miterlimit="10"/>
</svg>
