<svg width="514" height="302" viewBox="0 0 514 302" fill="none" xmlns="http://www.w3.org/2000/svg">
<g clip-path="url(#clip0)">
<path d="M513.298 287.327H514" stroke="black" stroke-miterlimit="10"/>
<path d="M68.1798 131.838L14.6966 147.568V203H4V173.786L45.7169 176.782V203H35.0202V161.801H45.7169L131.29 176.033V203H120.593V110.863L131.29 117.605L153.753 110.863V81.6494L164.449 86.1439V65.9188L159.101 62.9225L174.076 55.4317V0H181.564V55.4317L196.539 62.9225L191.191 65.9188V86.1439L201.888 81.6494V110.863L224.351 117.605L235.047 110.863V203H224.351V158.055L322.76 157.306V203H312.063V131.838L355.919 145.321V203H345.222V150.565L392.288 159.554V203H381.591V81.6494L444.701 100.376V203H456.467L480 122.1" stroke="#bbb" stroke-width="3" stroke-miterlimit="10"/>
<path d="M56.512 217.092L46.63 255H35.452L29.404 230.052L23.14 255H11.962L2.35 217.092H12.232L17.686 244.686L24.436 217.092H34.588L41.068 244.686L46.576 217.092H56.512ZM59.3069 239.88C59.3069 236.784 59.8829 234.066 61.0349 231.726C62.2229 229.386 63.8249 227.586 65.8409 226.326C67.8569 225.066 70.1069 224.436 72.5909 224.436C74.7149 224.436 76.5689 224.868 78.1529 225.732C79.7729 226.596 81.0149 227.73 81.8789 229.134V224.868H91.1129V255H81.8789V250.734C80.9789 252.138 79.7189 253.272 78.0989 254.136C76.5149 255 74.6609 255.432 72.5369 255.432C70.0889 255.432 67.8569 254.802 65.8409 253.542C63.8249 252.246 62.2229 250.428 61.0349 248.088C59.8829 245.712 59.3069 242.976 59.3069 239.88ZM81.8789 239.934C81.8789 237.63 81.2309 235.812 79.9349 234.48C78.6749 233.148 77.1269 232.482 75.2909 232.482C73.4549 232.482 71.8889 233.148 70.5929 234.48C69.3329 235.776 68.7029 237.576 68.7029 239.88C68.7029 242.184 69.3329 244.02 70.5929 245.388C71.8889 246.72 73.4549 247.386 75.2909 247.386C77.1269 247.386 78.6749 246.72 79.9349 245.388C81.2309 244.056 81.8789 242.238 81.8789 239.934ZM107.027 229.89C108.107 228.234 109.457 226.938 111.077 226.002C112.697 225.03 114.497 224.544 116.477 224.544V234.318H113.939C111.635 234.318 109.907 234.822 108.755 235.83C107.603 236.802 107.027 238.53 107.027 241.014V255H97.7933V224.868H107.027V229.89ZM133.149 255.432C130.521 255.432 128.181 254.982 126.129 254.082C124.077 253.182 122.457 251.958 121.269 250.41C120.081 248.826 119.415 247.062 119.271 245.118H128.397C128.505 246.162 128.991 247.008 129.855 247.656C130.719 248.304 131.781 248.628 133.041 248.628C134.193 248.628 135.075 248.412 135.687 247.98C136.335 247.512 136.659 246.918 136.659 246.198C136.659 245.334 136.209 244.704 135.309 244.308C134.409 243.876 132.951 243.408 130.935 242.904C128.775 242.4 126.975 241.878 125.535 241.338C124.095 240.762 122.853 239.88 121.809 238.692C120.765 237.468 120.243 235.83 120.243 233.778C120.243 232.05 120.711 230.484 121.647 229.08C122.619 227.64 124.023 226.506 125.859 225.678C127.731 224.85 129.945 224.436 132.501 224.436C136.281 224.436 139.251 225.372 141.411 227.244C143.607 229.116 144.867 231.6 145.191 234.696H136.659C136.515 233.652 136.047 232.824 135.255 232.212C134.499 231.6 133.491 231.294 132.231 231.294C131.151 231.294 130.323 231.51 129.747 231.942C129.171 232.338 128.883 232.896 128.883 233.616C128.883 234.48 129.333 235.128 130.233 235.56C131.169 235.992 132.609 236.424 134.553 236.856C136.785 237.432 138.603 238.008 140.007 238.584C141.411 239.124 142.635 240.024 143.679 241.284C144.759 242.508 145.317 244.164 145.353 246.252C145.353 248.016 144.849 249.6 143.841 251.004C142.869 252.372 141.447 253.452 139.575 254.244C137.739 255.036 135.597 255.432 133.149 255.432ZM149.166 239.88C149.166 236.784 149.742 234.066 150.894 231.726C152.082 229.386 153.684 227.586 155.7 226.326C157.716 225.066 159.966 224.436 162.45 224.436C164.574 224.436 166.428 224.868 168.012 225.732C169.632 226.596 170.874 227.73 171.738 229.134V224.868H180.972V255H171.738V250.734C170.838 252.138 169.578 253.272 167.958 254.136C166.374 255 164.52 255.432 162.396 255.432C159.948 255.432 157.716 254.802 155.7 253.542C153.684 252.246 152.082 250.428 150.894 248.088C149.742 245.712 149.166 242.976 149.166 239.88ZM171.738 239.934C171.738 237.63 171.09 235.812 169.794 234.48C168.534 233.148 166.986 232.482 165.15 232.482C163.314 232.482 161.748 233.148 160.452 234.48C159.192 235.776 158.562 237.576 158.562 239.88C158.562 242.184 159.192 244.02 160.452 245.388C161.748 246.72 163.314 247.386 165.15 247.386C166.986 247.386 168.534 246.72 169.794 245.388C171.09 244.056 171.738 242.238 171.738 239.934ZM230.907 224.868L222.753 255H212.547L207.795 235.452L202.881 255H192.729L184.521 224.868H193.755L198.021 246.414L203.097 224.868H212.871L218.001 246.306L222.213 224.868H230.907Z" fill="white"/>
<path d="M300.518 216.444L290.258 255H285.344L277.838 229.728C277.55 228.684 277.262 227.64 276.974 226.596C276.686 225.552 276.452 224.634 276.272 223.842C276.092 223.014 275.966 222.438 275.894 222.114C275.858 222.582 275.66 223.59 275.3 225.138C274.976 226.65 274.562 228.234 274.058 229.89L266.768 255H261.854L251.648 216.444H256.724L262.718 239.988C263.15 241.644 263.51 243.246 263.798 244.794C264.122 246.342 264.374 247.8 264.554 249.168C264.734 247.764 265.004 246.234 265.364 244.578C265.724 242.922 266.138 241.302 266.606 239.718L273.41 216.444H278.432L285.506 239.88C286.01 241.536 286.442 243.192 286.802 244.848C287.162 246.468 287.432 247.908 287.612 249.168C287.792 247.836 288.044 246.396 288.368 244.848C288.692 243.264 289.07 241.626 289.502 239.934L295.442 216.444H300.518ZM315.916 225.516C318.4 225.516 320.524 226.056 322.288 227.136C324.088 228.216 325.456 229.746 326.392 231.726C327.364 233.67 327.85 235.956 327.85 238.584V241.446H308.032C308.104 244.722 308.932 247.224 310.516 248.952C312.136 250.644 314.386 251.49 317.266 251.49C319.102 251.49 320.722 251.328 322.126 251.004C323.566 250.644 325.042 250.14 326.554 249.492V253.65C325.078 254.298 323.62 254.766 322.18 255.054C320.74 255.378 319.03 255.54 317.05 255.54C314.314 255.54 311.884 254.982 309.76 253.866C307.672 252.75 306.034 251.094 304.846 248.898C303.694 246.666 303.118 243.948 303.118 240.744C303.118 237.576 303.64 234.858 304.684 232.59C305.764 230.322 307.258 228.576 309.166 227.352C311.11 226.128 313.36 225.516 315.916 225.516ZM315.862 229.404C313.594 229.404 311.794 230.142 310.462 231.618C309.166 233.058 308.392 235.074 308.14 237.666H322.882C322.846 235.218 322.27 233.238 321.154 231.726C320.038 230.178 318.274 229.404 315.862 229.404ZM354.065 247.008C354.065 249.816 353.021 251.94 350.933 253.38C348.845 254.82 346.037 255.54 342.509 255.54C340.493 255.54 338.747 255.378 337.271 255.054C335.831 254.73 334.553 254.28 333.437 253.704V249.384C334.589 249.96 335.975 250.5 337.595 251.004C339.251 251.472 340.925 251.706 342.617 251.706C345.029 251.706 346.775 251.328 347.855 250.572C348.935 249.78 349.475 248.736 349.475 247.44C349.475 246.72 349.277 246.072 348.881 245.496C348.485 244.92 347.765 244.344 346.721 243.768C345.713 243.192 344.255 242.544 342.347 241.824C340.475 241.104 338.873 240.384 337.541 239.664C336.209 238.944 335.183 238.08 334.463 237.072C333.743 236.064 333.383 234.768 333.383 233.184C333.383 230.736 334.373 228.846 336.353 227.514C338.369 226.182 340.997 225.516 344.237 225.516C346.001 225.516 347.639 225.696 349.151 226.056C350.699 226.38 352.139 226.848 353.471 227.46L351.851 231.24C350.627 230.736 349.349 230.304 348.017 229.944C346.685 229.584 345.317 229.404 343.913 229.404C341.969 229.404 340.475 229.728 339.431 230.376C338.423 230.988 337.919 231.834 337.919 232.914C337.919 233.706 338.153 234.39 338.621 234.966C339.089 235.506 339.863 236.046 340.943 236.586C342.059 237.09 343.535 237.702 345.371 238.422C347.207 239.106 348.773 239.808 350.069 240.528C351.365 241.248 352.355 242.13 353.039 243.174C353.723 244.182 354.065 245.46 354.065 247.008ZM370.725 251.652C371.445 251.652 372.183 251.598 372.939 251.49C373.695 251.346 374.307 251.202 374.775 251.058V254.676C374.271 254.928 373.551 255.126 372.615 255.27C371.679 255.45 370.779 255.54 369.915 255.54C368.403 255.54 366.999 255.288 365.703 254.784C364.443 254.244 363.417 253.326 362.625 252.03C361.833 250.734 361.437 248.916 361.437 246.576V229.728H357.333V227.46L361.491 225.57L363.381 219.414H366.189V226.056H374.559V229.728H366.189V246.468C366.189 248.232 366.603 249.546 367.431 250.41C368.295 251.238 369.393 251.652 370.725 251.652ZM399.416 247.008C399.416 249.816 398.372 251.94 396.284 253.38C394.196 254.82 391.388 255.54 387.86 255.54C385.844 255.54 384.098 255.378 382.622 255.054C381.182 254.73 379.904 254.28 378.788 253.704V249.384C379.94 249.96 381.326 250.5 382.946 251.004C384.602 251.472 386.276 251.706 387.968 251.706C390.38 251.706 392.126 251.328 393.206 250.572C394.286 249.78 394.826 248.736 394.826 247.44C394.826 246.72 394.628 246.072 394.232 245.496C393.836 244.92 393.116 244.344 392.072 243.768C391.064 243.192 389.606 242.544 387.698 241.824C385.826 241.104 384.224 240.384 382.892 239.664C381.56 238.944 380.534 238.08 379.814 237.072C379.094 236.064 378.734 234.768 378.734 233.184C378.734 230.736 379.724 228.846 381.704 227.514C383.72 226.182 386.348 225.516 389.588 225.516C391.352 225.516 392.99 225.696 394.502 226.056C396.05 226.38 397.49 226.848 398.822 227.46L397.202 231.24C395.978 230.736 394.7 230.304 393.368 229.944C392.036 229.584 390.668 229.404 389.264 229.404C387.32 229.404 385.826 229.728 384.782 230.376C383.774 230.988 383.27 231.834 383.27 232.914C383.27 233.706 383.504 234.39 383.972 234.966C384.44 235.506 385.214 236.046 386.294 236.586C387.41 237.09 388.886 237.702 390.722 238.422C392.558 239.106 394.124 239.808 395.42 240.528C396.716 241.248 397.706 242.13 398.39 243.174C399.074 244.182 399.416 245.46 399.416 247.008ZM408.84 215.202C409.56 215.202 410.19 215.454 410.73 215.958C411.306 216.426 411.594 217.182 411.594 218.226C411.594 219.234 411.306 219.99 410.73 220.494C410.19 220.998 409.56 221.25 408.84 221.25C408.048 221.25 407.382 220.998 406.842 220.494C406.302 219.99 406.032 219.234 406.032 218.226C406.032 217.182 406.302 216.426 406.842 215.958C407.382 215.454 408.048 215.202 408.84 215.202ZM411.162 226.056V255H406.41V226.056H411.162ZM430.592 255.54C426.992 255.54 424.112 254.298 421.952 251.814C419.792 249.294 418.712 245.55 418.712 240.582C418.712 235.614 419.792 231.87 421.952 229.35C424.148 226.794 427.046 225.516 430.646 225.516C432.878 225.516 434.696 225.93 436.1 226.758C437.54 227.586 438.71 228.594 439.61 229.782H439.934C439.898 229.314 439.826 228.63 439.718 227.73C439.646 226.794 439.61 226.056 439.61 225.516V213.96H444.362V255H440.528L439.826 251.112H439.61C438.746 252.336 437.594 253.38 436.154 254.244C434.714 255.108 432.86 255.54 430.592 255.54ZM431.348 251.598C434.408 251.598 436.55 250.77 437.774 249.114C439.034 247.422 439.664 244.884 439.664 241.5V240.636C439.664 237.036 439.07 234.282 437.882 232.374C436.694 230.43 434.498 229.458 431.294 229.458C428.738 229.458 426.812 230.484 425.516 232.536C424.256 234.552 423.626 237.27 423.626 240.69C423.626 244.146 424.256 246.828 425.516 248.736C426.812 250.644 428.756 251.598 431.348 251.598ZM464.733 225.516C467.217 225.516 469.341 226.056 471.105 227.136C472.905 228.216 474.273 229.746 475.209 231.726C476.181 233.67 476.667 235.956 476.667 238.584V241.446H456.849C456.921 244.722 457.749 247.224 459.333 248.952C460.953 250.644 463.203 251.49 466.083 251.49C467.919 251.49 469.539 251.328 470.943 251.004C472.383 250.644 473.859 250.14 475.371 249.492V253.65C473.895 254.298 472.437 254.766 470.997 255.054C469.557 255.378 467.847 255.54 465.867 255.54C463.131 255.54 460.701 254.982 458.577 253.866C456.489 252.75 454.851 251.094 453.663 248.898C452.511 246.666 451.935 243.948 451.935 240.744C451.935 237.576 452.457 234.858 453.501 232.59C454.581 230.322 456.075 228.576 457.983 227.352C459.927 226.128 462.177 225.516 464.733 225.516ZM464.679 229.404C462.411 229.404 460.611 230.142 459.279 231.618C457.983 233.058 457.209 235.074 456.957 237.666H471.699C471.663 235.218 471.087 233.238 469.971 231.726C468.855 230.178 467.091 229.404 464.679 229.404Z" fill="white"/>
<path d="M7.182 263.2H8.262V301H7.182V263.2ZM49.3092 272.92C52.8012 272.92 55.5372 273.928 57.5172 275.944C59.4972 277.924 60.4872 280.786 60.4872 284.53V301H59.4072V284.53C59.4072 281.11 58.5252 278.5 56.7612 276.7C55.0332 274.864 52.5672 273.946 49.3632 273.946C45.7272 273.946 42.8472 275.044 40.7232 277.24C38.6352 279.4 37.5912 282.262 37.5912 285.826V301H36.5112V273.082H37.5912V280.534C38.4552 278.158 39.8952 276.304 41.9112 274.972C43.9272 273.604 46.3932 272.92 49.3092 272.92ZM107.802 273.082L94.9501 301H93.8701L81.0181 273.082H82.2601L94.4101 299.758L106.56 273.082H107.802ZM150.957 287.014H126.117C126.117 289.534 126.675 291.802 127.791 293.818C128.907 295.798 130.437 297.346 132.381 298.462C134.361 299.578 136.575 300.136 139.023 300.136C140.931 300.136 142.713 299.776 144.369 299.056C146.061 298.3 147.447 297.22 148.527 295.816L149.283 296.572C148.059 298.048 146.547 299.182 144.747 299.974C142.947 300.766 141.039 301.162 139.023 301.162C136.359 301.162 133.965 300.568 131.841 299.38C129.753 298.156 128.097 296.464 126.873 294.304C125.685 292.144 125.091 289.714 125.091 287.014C125.091 284.314 125.649 281.902 126.765 279.778C127.881 277.618 129.411 275.944 131.355 274.756C133.335 273.532 135.549 272.92 137.997 272.92C140.409 272.92 142.605 273.514 144.585 274.702C146.565 275.89 148.113 277.528 149.229 279.616C150.381 281.704 150.957 284.08 150.957 286.744V287.014ZM137.997 273.946C135.837 273.946 133.875 274.468 132.111 275.512C130.347 276.556 128.925 277.996 127.845 279.832C126.801 281.668 126.225 283.72 126.117 285.988H149.931C149.823 283.72 149.229 281.668 148.149 279.832C147.069 277.996 145.647 276.556 143.883 275.512C142.119 274.468 140.157 273.946 137.997 273.946ZM181.354 301.162C179.122 301.162 177.016 300.802 175.036 300.082C173.056 299.362 171.526 298.444 170.446 297.328L171.094 296.464C172.174 297.508 173.614 298.39 175.414 299.11C177.25 299.794 179.23 300.136 181.354 300.136C184.522 300.136 186.862 299.596 188.374 298.516C189.886 297.4 190.642 295.87 190.642 293.926C190.642 292.522 190.228 291.424 189.4 290.632C188.608 289.804 187.618 289.21 186.43 288.85C185.278 288.454 183.676 288.058 181.624 287.662C179.428 287.266 177.646 286.852 176.278 286.42C174.946 285.952 173.812 285.232 172.876 284.26C171.976 283.252 171.526 281.866 171.526 280.102C171.526 278.086 172.354 276.394 174.01 275.026C175.702 273.622 178.168 272.92 181.408 272.92C183.136 272.92 184.846 273.19 186.538 273.73C188.23 274.234 189.598 274.918 190.642 275.782L189.994 276.646C188.914 275.782 187.618 275.116 186.106 274.648C184.594 274.18 183.028 273.946 181.408 273.946C178.492 273.946 176.296 274.522 174.82 275.674C173.38 276.79 172.66 278.266 172.66 280.102C172.66 281.578 173.074 282.748 173.902 283.612C174.73 284.44 175.756 285.052 176.98 285.448C178.204 285.844 179.824 286.222 181.84 286.582C184.036 287.014 185.782 287.446 187.078 287.878C188.374 288.31 189.472 289.012 190.372 289.984C191.272 290.92 191.722 292.234 191.722 293.926C191.722 296.122 190.84 297.886 189.076 299.218C187.312 300.514 184.738 301.162 181.354 301.162ZM227.41 299.164C226.798 299.812 225.988 300.316 224.98 300.676C224.008 301 223 301.162 221.956 301.162C219.796 301.162 218.122 300.55 216.934 299.326C215.782 298.066 215.206 296.392 215.206 294.304V274.108H209.806V273.082H215.206V266.98H216.286V273.082H225.736V274.108H216.286V294.034C216.286 296.014 216.772 297.526 217.744 298.57C218.716 299.614 220.138 300.136 222.01 300.136C223.882 300.136 225.43 299.56 226.654 298.408L227.41 299.164ZM285.282 272.92C288.666 272.92 291.312 273.928 293.22 275.944C295.164 277.924 296.136 280.786 296.136 284.53V301H295.056V284.53C295.056 281.11 294.21 278.5 292.518 276.7C290.826 274.864 288.432 273.946 285.336 273.946C281.808 273.946 279.018 275.044 276.966 277.24C274.914 279.4 273.888 282.262 273.888 285.826V301H272.808V284.53C272.808 281.11 271.962 278.5 270.27 276.7C268.578 274.864 266.184 273.946 263.088 273.946C259.56 273.946 256.77 275.044 254.718 277.24C252.666 279.4 251.64 282.262 251.64 285.826V301H250.56V273.082H251.64V280.48C252.468 278.104 253.872 276.25 255.852 274.918C257.832 273.586 260.226 272.92 263.034 272.92C265.878 272.92 268.218 273.64 270.054 275.08C271.89 276.484 273.078 278.536 273.618 281.236C274.338 278.68 275.706 276.664 277.722 275.188C279.774 273.676 282.294 272.92 285.282 272.92ZM345.673 287.014H320.833C320.833 289.534 321.391 291.802 322.507 293.818C323.623 295.798 325.153 297.346 327.097 298.462C329.077 299.578 331.291 300.136 333.739 300.136C335.647 300.136 337.429 299.776 339.085 299.056C340.777 298.3 342.163 297.22 343.243 295.816L343.999 296.572C342.775 298.048 341.263 299.182 339.463 299.974C337.663 300.766 335.755 301.162 333.739 301.162C331.075 301.162 328.681 300.568 326.557 299.38C324.469 298.156 322.813 296.464 321.589 294.304C320.401 292.144 319.807 289.714 319.807 287.014C319.807 284.314 320.365 281.902 321.481 279.778C322.597 277.618 324.127 275.944 326.071 274.756C328.051 273.532 330.265 272.92 332.713 272.92C335.125 272.92 337.321 273.514 339.301 274.702C341.281 275.89 342.829 277.528 343.945 279.616C345.097 281.704 345.673 284.08 345.673 286.744V287.014ZM332.713 273.946C330.553 273.946 328.591 274.468 326.827 275.512C325.063 276.556 323.641 277.996 322.561 279.832C321.517 281.668 320.941 283.72 320.833 285.988H344.647C344.539 283.72 343.945 281.668 342.865 279.832C341.785 277.996 340.363 276.556 338.599 275.512C336.835 274.468 334.873 273.946 332.713 273.946ZM382.443 272.92C385.935 272.92 388.671 273.928 390.651 275.944C392.631 277.924 393.621 280.786 393.621 284.53V301H392.541V284.53C392.541 281.11 391.659 278.5 389.895 276.7C388.167 274.864 385.701 273.946 382.497 273.946C378.861 273.946 375.981 275.044 373.857 277.24C371.769 279.4 370.725 282.262 370.725 285.826V301H369.645V273.082H370.725V280.534C371.589 278.158 373.029 276.304 375.045 274.972C377.061 273.604 379.527 272.92 382.443 272.92ZM433.201 299.164C432.589 299.812 431.779 300.316 430.771 300.676C429.799 301 428.791 301.162 427.747 301.162C425.587 301.162 423.913 300.55 422.725 299.326C421.573 298.066 420.997 296.392 420.997 294.304V274.108H415.597V273.082H420.997V266.98H422.077V273.082H431.527V274.108H422.077V294.034C422.077 296.014 422.563 297.526 423.535 298.57C424.507 299.614 425.929 300.136 427.801 300.136C429.673 300.136 431.221 299.56 432.445 298.408L433.201 299.164ZM462.777 301.162C460.545 301.162 458.439 300.802 456.459 300.082C454.479 299.362 452.949 298.444 451.869 297.328L452.517 296.464C453.597 297.508 455.037 298.39 456.837 299.11C458.673 299.794 460.653 300.136 462.777 300.136C465.945 300.136 468.285 299.596 469.797 298.516C471.309 297.4 472.065 295.87 472.065 293.926C472.065 292.522 471.651 291.424 470.823 290.632C470.031 289.804 469.041 289.21 467.853 288.85C466.701 288.454 465.099 288.058 463.047 287.662C460.851 287.266 459.069 286.852 457.701 286.42C456.369 285.952 455.235 285.232 454.299 284.26C453.399 283.252 452.949 281.866 452.949 280.102C452.949 278.086 453.777 276.394 455.433 275.026C457.125 273.622 459.591 272.92 462.831 272.92C464.559 272.92 466.269 273.19 467.961 273.73C469.653 274.234 471.021 274.918 472.065 275.782L471.417 276.646C470.337 275.782 469.041 275.116 467.529 274.648C466.017 274.18 464.451 273.946 462.831 273.946C459.915 273.946 457.719 274.522 456.243 275.674C454.803 276.79 454.083 278.266 454.083 280.102C454.083 281.578 454.497 282.748 455.325 283.612C456.153 284.44 457.179 285.052 458.403 285.448C459.627 285.844 461.247 286.222 463.263 286.582C465.459 287.014 467.205 287.446 468.501 287.878C469.797 288.31 470.895 289.012 471.795 289.984C472.695 290.92 473.145 292.234 473.145 293.926C473.145 296.122 472.263 297.886 470.499 299.218C468.735 300.514 466.161 301.162 462.777 301.162Z" fill="white"/>
</g>
<defs>
<clipPath id="clip0">
<rect width="514" height="302" fill="white"/>
</clipPath>
</defs>
</svg>
